<svg xmlns="http://www.w3.org/2000/svg" xmlns:xlink="http://www.w3.org/1999/xlink" width="728" height="90" viewBox="0 0 728 90">
  <defs>
    <linearGradient id="bg2" x1="0%" y1="0%" x2="100%" y2="0%">
      <stop offset="0%" style="stop-color:#F0FFF2"/>
      <stop offset="100%" style="stop-color:#E6F9E8"/>
    </linearGradient>
  </defs>
  <rect width="728" height="90" fill="url(#bg2)" rx="6"/>
  <rect width="728" height="90" fill="none" stroke="#00AA13" stroke-width="1.5" stroke-dasharray="6,4" rx="6"/>
  <rect x="0" y="0" width="5" height="90" fill="#00AA13" rx="2"/>
  <rect x="12" y="8" width="40" height="14" rx="7" fill="#00AA13"/>
  <text x="32" y="18.5" text-anchor="middle" font-family="Arial, sans-serif" font-weight="700" font-size="8" fill="white">IKLAN</text>
  <image href="/logo-jhb.png" x="52" y="22" width="48" height="48" preserveAspectRatio="xMidYMid meet"/>
  <line x1="112" y1="18" x2="112" y2="72" stroke="rgba(0,170,19,0.3)" stroke-width="1"/>
  <text x="128" y="36" font-family="Arial, sans-serif" font-weight="700" font-size="16" fill="#1C1C1E">Butuh Informasi Hukum yang Akurat &amp; Terpercaya?</text>
  <text x="128" y="56" font-family="Arial, sans-serif" font-size="12" fill="#6B7280">Kunjungi Jurnalis Hukum Bandung — Berita hukum pidana, perdata, HAM &amp; tata negara.</text>
  <circle cx="128" cy="72" r="3" fill="#00AA13"/>
  <text x="136" y="75" font-family="Arial, sans-serif" font-size="9" fill="#6B7280">Terverifikasi</text>
  <circle cx="195" cy="72" r="3" fill="#00AA13"/>
  <text x="203" y="75" font-family="Arial, sans-serif" font-size="9" fill="#6B7280">Independen</text>
  <circle cx="258" cy="72" r="3" fill="#00AA13"/>
  <text x="266" y="75" font-family="Arial, sans-serif" font-size="9" fill="#6B7280">Terpercaya</text>
  <rect x="570" y="22" width="140" height="46" rx="23" fill="#1C1C1E"/>
  <text x="640" y="42" text-anchor="middle" font-family="Arial, sans-serif" font-weight="700" font-size="11" fill="white">Baca Artikel</text>
  <text x="640" y="57" text-anchor="middle" font-family="Arial, sans-serif" font-weight="700" font-size="11" fill="#00AA13">Hukum Lainnya →</text>
</svg>
